<svg xmlns="http://www.w3.org/2000/svg" viewBox="0 0 173.62 47.51"><defs><style>.cls-1{fill:#fff;fill-rule:evenodd;}</style></defs><title>firmRecurso 4</title><g id="Capa_2" data-name="Capa 2"><g id="Capa_1-2" data-name="Capa 1"><path class="cls-1" d="M90.66,24c-1.51.47-3,1-4.53,1.4-2.4.7-4.81,1.34-7.21,2-2.21.63-4.42,1.26-6.61,1.94C68.54,30.56,64.77,31.74,61,33c-2.89.95-5.74,2-8.63,2.94a23.88,23.88,0,0,1-6.25,1.44c-2.18.1-3.33-1.37-2.61-3.4a13.9,13.9,0,0,1,2.58-4c1.24-1.54,2.58-3,3.88-4.49a3,3,0,0,1,.76-.65.65.65,0,0,1,.59.08.58.58,0,0,1,.11.56c-.34.47-.76.89-1.14,1.33-1.22,1.45-2.49,2.86-3.65,4.36a26.8,26.8,0,0,0-1.93,3c-.62,1.07.16,2.05,1.64,1.88a27.56,27.56,0,0,0,4.79-1c2.33-.71,4.58-1.68,6.91-2.43,2.5-.81,5-1.5,7.55-2.26,2.12-.64,4.23-1.34,6.36-1.95q6.11-1.73,12.25-3.37c1.87-.49,3.77-.86,5.66-1.27a4.53,4.53,0,0,1,.69,0l.09.25"/><path class="cls-1" d="M35.08,28.44c-.5.76-1,1.49-1.46,2.24-.57.93-1.16,1.86-1.66,2.83-1.2,2.34-2.38,4.69-3.51,7.06s-1.87,4.63-3.89,6.3a2.85,2.85,0,0,1-.79.56c-.73.25-1.18-.19-.93-.95a22.79,22.79,0,0,1,1.43-3.89,64.52,64.52,0,0,0,4-9.63c.64-1.83,1.51-3.59,2.32-5.37.36-.79.81-1.52,1.21-2.29a1.23,1.23,0,0,1,2.25-.21c.34.44.65.91,1.07,1.5l8.28-12.36-.13-.15c-.25.18-.51.35-.75.55-2.26,1.91-4.52,3.83-6.79,5.73-1.53,1.28-3.07,2.55-4.64,3.78-1.42,1.11-2.87,2.18-4.31,3.26s-3,2.31-4.57,3.44c-1.26.93-2.55,1.83-3.84,2.72-2,1.39-4,2.77-6.07,4.15C10.5,39,8.67,40.18,6.88,41.46a25.3,25.3,0,0,0-5,4.19,2.14,2.14,0,0,1-.89.7,2.69,2.69,0,0,1-1-.1c.11-.38.1-1,.34-1.09,1.68-.84,2.83-2.32,4.35-3.34,1.7-1.15,3.33-2.38,5-3.55q4-2.79,8-5.54c1.61-1.11,3.26-2.17,4.84-3.32,1.75-1.27,3.43-2.64,5.16-3.94,1.35-1,2.78-1.95,4.09-3,3-2.42,5.89-4.91,8.83-7.37a52,52,0,0,0,6.65-6.41c1.18-1.41,2.24-2.92,3.37-4.37a1.93,1.93,0,0,1,.7-.6,2.81,2.81,0,0,1,.88-.08c0,.32.08.73-.08.94-.9,1.19-1.87,2.32-2.79,3.48C48.22,9.48,47,10.91,46,12.4c-1.69,2.38-3.3,4.81-4.94,7.23-1.3,1.92-2.58,3.85-3.88,5.77-.4.59-.84,1.16-1.24,1.75-.23.35-.15.62.18.93a9.15,9.15,0,0,0,4.64,2.12,5.34,5.34,0,0,0,3.17.13c.1,0,.26,0,.39.06-.06.13-.09.3-.19.37a3.43,3.43,0,0,1-2.81.45,23.43,23.43,0,0,1-4-1.17,11.52,11.52,0,0,1-2.2-1.6m-.67-.92a12.46,12.46,0,0,0-.66-1.18,4.93,4.93,0,0,0-.7-.67,4.06,4.06,0,0,0-.64.71c-.79,1.45-1.59,2.9-2.31,4.39a32.24,32.24,0,0,0-1.38,3.35c-.54,1.53-.92,3.1-1.5,4.61-.49,1.3-1.18,2.52-1.74,3.79-.28.64-.47,1.31-.7,2l.19.09a5,5,0,0,0,.49-.66c1-1.83,1.91-3.67,2.86-5.51,1-2,2-4,3.11-6,.92-1.65,2-3.24,3-4.9"/><path class="cls-1" d="M155.06,26.53a2.81,2.81,0,0,1-.72-2.8c.17-.92.5-1.81.81-2.86-.57.32-1,.57-1.51.84a38.76,38.76,0,0,1-8.1,3.44c-1.72.54-3.49.93-5.22,1.44a6.17,6.17,0,0,0-1.21.64l-1,.61-1.26-2.26c-1,.56-2,1.06-2.92,1.65-1.22.78-2.33,1.72-3.59,2.42a11.41,11.41,0,0,1-5,1.74,4.89,4.89,0,0,1-4.41-2.77c-.1-.25-.29-.52-.61-.13-.67.82-1.36,1.61-2,2.43s-1.53,1.82-2.2,2.79C115,35.26,114,36.86,113,38.45c-.28.45-.48.94-.75,1.39a1,1,0,0,1-1.21.48c-.6-.23-.34-.65-.16-1.12.92-2.38,2.8-4.15,4.06-6.3a48.85,48.85,0,0,0,2.47-4.75c1-2.32,1.93-4.7,2.92-7,.23-.54,0-1.36.92-1.52a1.4,1.4,0,0,1,.44,1.53c-.23,1.14-.44,2.29-.63,3.44a5.78,5.78,0,0,0,.05,1.08L133.58,9.78c-.58.3-1.16.57-1.7.9-2.06,1.26-4.09,2.56-6.15,3.8q-3.81,2.28-7.68,4.48c-2.23,1.27-4.52,2.45-6.73,3.76-1,.6-1.78,1.53-3,1.88-.48.14-.78.13-1-.29a.84.84,0,0,1,.5-1.1c2.77-1.51,5.56-3,8.32-4.5,3.53-1.95,7.06-3.89,10.54-5.93,2.62-1.54,5.12-3.26,7.72-4.83a26.22,26.22,0,0,0,4.77-3.84,47.14,47.14,0,0,1,4-3.22,6.4,6.4,0,0,1,1-.62c.45-.23.89-.52,1.36,0s-.08.88-.37,1.12Q142.91,3.25,140.52,5a28.24,28.24,0,0,0-5.74,5.16c-1.58,2-3.19,3.91-4.76,5.87-1,1.28-2,2.58-3,3.87q-2.1,2.71-4.2,5.41c-.17.22-.43.37-.59.59-1,1.26-1,1.51-.1,2.82A3.61,3.61,0,0,0,125,30.25a7.41,7.41,0,0,0,2.78-.65,26.92,26.92,0,0,0,5.68-3.38,18.45,18.45,0,0,1,3.36-1.71,1.19,1.19,0,0,1,1,.35c.84,1,.78.9,1.93.52a33.64,33.64,0,0,1,4-1,22.76,22.76,0,0,0,6.36-2.13c1.53-.8,3-1.65,4.56-2.43a9.49,9.49,0,0,0,3.21-3,31.2,31.2,0,0,1,3.29-3.5c1.34-1.3,2.77-2.52,4.15-3.78q2.49-2.28,5-4.58c.7-.65,1.39-1.31,2.08-2a.69.69,0,0,1,1.15,0,1.06,1.06,0,0,1-.25,1c-1.16,1.13-2.41,2.16-3.56,3.31s-2,2.21-3,3.31a21.75,21.75,0,0,0-1.58,1.61,34.41,34.41,0,0,1-5.06,5.09c-.46.41-1,.75-1.47,1.12A9.13,9.13,0,0,0,155.18,25c-.05.42-.07.85-.12,1.53m-36.91,2.81c.93-1.18,2.53-2.14,1.71-4l-1.71,4"/></g></g></svg>