<svg xmlns="http://www.w3.org/2000/svg" viewBox="0 0 297.56 20.29"><defs><style>.cls-1{isolation:isolate;}</style></defs><title>logo-negro-svg</title><g id="Capa_2" data-name="Capa 2"><g id="Capa_1-2" data-name="Capa 1"><g id="Capa_2-2" data-name="Capa 2"><g id="Capa_1-2-2" data-name="Capa 1-2"><g class="cls-1"><g class="cls-1"><path d="M3.39,14.53a4.26,4.26,0,0,0,4.45,2.94c2.3,0,3.81-1.09,3.81-2.91,0-1.38-.8-2.18-2.85-2.66l-3.33-.8C2.75,10.46.58,9,.58,5.82.58,2.5,3.3,0,7.26,0,11.52,0,14,2.18,14.72,5.44H11.39A3.92,3.92,0,0,0,7.3,2.82c-2.12,0-3.56,1.08-3.56,2.72,0,1.31.84,2.14,2.6,2.56l3.42.8c3.07.7,5.09,2.49,5.09,5.44,0,3.68-2.95,5.95-7,5.95S.7,18.18,0,14.53Z"/><path d="M37.89.32V20H34.56V11.36H24.67V20H21.34V.32h3.33v8.1h9.89V.32Z"/></g><g class="cls-1"><path d="M54.65.32,62.2,20H58.81l-2-5.44H49.28l-2,5.44H43.9L51.45.32ZM50.33,11.65h5.38L53,4.38Z"/></g><g class="cls-1"><path d="M67.27,12.13V.32h3.32V11.78c0,3.77,1.6,5.53,4.55,5.53s4.54-1.76,4.54-5.53V.32H83V12.16c0,5.38-3.17,8.13-7.87,8.13S67.27,17.54,67.27,12.13Z"/><path d="M106.05,20h-2.56l-10-14.31V20h-3.2V.32h3.14L102.85,14V.32h3.2Z"/></g><g class="cls-1"><path d="M114.24,4.19a2,2,0,0,1-1.8-2.05A2.11,2.11,0,0,1,114.62,0a2.15,2.15,0,0,1,2.18,2.4A5,5,0,0,1,115.87,5l-1.76,2.69H112Z"/></g><g class="cls-1"><path d="M124.51,14.53A4.26,4.26,0,0,0,129,17.47c2.3,0,3.81-1.09,3.81-2.91,0-1.38-.8-2.18-2.85-2.66l-3.33-.8c-2.72-.64-4.89-2.11-4.89-5.28,0-3.32,2.72-5.82,6.68-5.82,4.26,0,6.75,2.18,7.46,5.44h-3.33a3.92,3.92,0,0,0-4.09-2.62c-2.12,0-3.56,1.08-3.56,2.72,0,1.31.84,2.14,2.6,2.56l3.42.8c3.07.7,5.09,2.49,5.09,5.44,0,3.68-2.95,5.95-7,5.95s-7.14-2.11-7.84-5.76Z"/><path d="M154.49,14.24c.23,1.89,1.25,3,3.14,3,2.24,0,3.33-1.28,3.33-4.07V.32h3.33V13.18c0,4.67-2.56,7.11-6.6,7.11-4.22,0-6.36-2.56-6.65-6Z"/><path d="M179.45,20.29c-5.31,0-9-4.29-9-10.15S174.14,0,179.45,0s9.09,4.26,9.09,10.14S184.77,20.29,179.45,20.29Zm0-17.31c-3.45,0-5.69,3-5.69,7.16s2.24,7.17,5.69,7.17,5.73-3,5.73-7.17S182.91,3,179.45,3Z"/><path d="M194.72,12.13V.32h3.33V11.78c0,3.77,1.6,5.53,4.54,5.53s4.54-1.76,4.54-5.53V.32h3.33V12.16c0,5.38-3.17,8.13-7.87,8.13S194.72,17.54,194.72,12.13Z"/><path d="M221,12v8h-3.33V.32h7.59c4.06,0,6.69,2.05,6.69,5.89,0,3.29-1.92,5.18-5,5.66l5.7,8.1h-3.78l-5.47-8Zm0-2.78h4.19c2.21,0,3.46-1.19,3.46-3s-1.25-3-3.46-3H221Z"/><path d="M254.46,20H251.9L241.85,5.66V20h-3.2V.32h3.14L251.26,14V.32h3.2Z"/><path d="M271.23.32,278.78,20h-3.39l-2-5.44h-7.52l-2,5.44h-3.36L268,.32Zm-4.32,11.33h5.37L269.6,4.38Z"/><path d="M284.8.32h3.33V17h9.43v3H284.8Z"/></g></g></g></g></g></g></svg>