<svg xmlns="http://www.w3.org/2000/svg" viewBox="0 0 349.19 20.45"><defs><style>.cls-1{fill:#fff;}</style></defs><title>Recurso 1</title><g id="Capa_2" data-name="Capa 2"><g id="Capa_1-2" data-name="Capa 1"><path class="cls-1" d="M2.59,15a4.91,4.91,0,0,0,5,3.3c2.59,0,4.4-1.26,4.4-3.46,0-1.55-.87-2.56-3.17-3.14l-3.56-.94C2.56,10,.55,8.64.55,5.63.55,2.27,3.33,0,7.09,0c4.11,0,6.54,2.1,7.28,5.24H11.81A4.55,4.55,0,0,0,7.09,2.17C4.73,2.17,3,3.4,3,5.44c0,1.68,1.1,2.49,3.17,3l3.4.87c3.17.81,5,2.52,5,5.34,0,3.59-2.91,5.76-6.86,5.76S.74,18.48,0,15Z"/><path class="cls-1" d="M40.91.29V20.16H38.35V11.1H27.12v9.06H24.57V.29h2.56V8.8H38.35V.29Z"/><path class="cls-1" d="M60.59.29l7.77,19.87H65.76l-2.3-6H55.28l-2.27,6H50.42L58.19.29ZM56.12,11.94h6.47L59.36,3.46Z"/><path class="cls-1" d="M77,12.27V.29h2.52V12c0,4.24,2,6.21,5.24,6.21S90,16.21,90,12V.29h2.56v12c0,5.44-3.27,8.16-7.8,8.16S77,17.74,77,12.27Z"/><path class="cls-1" d="M118.88,20.16H117L105.9,4.37V20.16h-2.46V.29h2.43l10.58,15.11V.29h2.43Z"/><path class="cls-1" d="M143.7,20.16V.29h12.14V2.56h-9.58v6.7h9v2.27h-9v8.64Z"/><path class="cls-1" d="M173.67,20.45c-5.21,0-9-4.24-9-10.23S168.46,0,173.67,0s9,4.21,9,10.23S178.91,20.45,173.67,20.45Zm0-18.16c-3.82,0-6.41,3.27-6.41,7.93s2.59,7.93,6.41,7.93,6.44-3.27,6.44-7.93S177.52,2.3,173.67,2.3Z"/><path class="cls-1" d="M195.26,11.75v8.41H192.7V.29h7.38c4,0,6.5,2,6.5,5.76,0,3.3-1.94,5.18-5,5.6l5.86,8.51h-2.91l-5.7-8.41Zm0-2.17H200c2.62,0,4-1.33,4-3.53s-1.42-3.53-4-3.53h-4.76Z"/><path class="cls-1" d="M217,.29h6.38c5.83,0,9.64,3.88,9.64,9.94s-3.82,9.94-9.64,9.94H217Zm6.34,17.57c4.5,0,7.15-3,7.15-7.64s-2.65-7.67-7.15-7.67H219.6V17.86Z"/><path class="cls-1" d="M266,4.82A2.78,2.78,0,0,0,263.1,2,2.88,2.88,0,0,0,260,5c0,1.46,1,2.49,2.14,3.72l5.57,5.92a12.23,12.23,0,0,0,.94-4.4h2.27a12.3,12.3,0,0,1-1.72,6l3.72,3.95h-3.2l-2-2.07a7.85,7.85,0,0,1-5.7,2.36c-3.79,0-6.44-2.56-6.44-6.08a6.12,6.12,0,0,1,3.63-5.44A5.89,5.89,0,0,1,257.66,5c0-3.11,2.36-5,5.44-5,3.37,0,5.18,2.14,5.31,4.82Zm.42,11.81-5.79-6.18a4.18,4.18,0,0,0-2.65,3.92,3.91,3.91,0,0,0,4.11,4A5.75,5.75,0,0,0,266.4,16.64Z"/><path class="cls-1" d="M303.49,0a7.44,7.44,0,0,1,7.73,6.12H308.7a5.19,5.19,0,0,0-5.21-3.82c-3.79,0-6.34,3.2-6.34,7.93s2.52,7.93,6.34,7.93a5.19,5.19,0,0,0,5.21-3.85h2.52a7.46,7.46,0,0,1-7.73,6.15c-5,0-8.9-4-8.9-10.23S298.47,0,303.49,0Z"/><path class="cls-1" d="M329,20.45c-5.21,0-9-4.24-9-10.23S323.78,0,329,0s9,4.21,9,10.23S334.23,20.45,329,20.45ZM329,2.3c-3.82,0-6.41,3.27-6.41,7.93s2.59,7.93,6.41,7.93,6.44-3.27,6.44-7.93S332.84,2.3,329,2.3Z"/><path class="cls-1" d="M347.47,16.8a1.74,1.74,0,0,1,1.72,1.78,1.73,1.73,0,1,1-3.46,0A1.75,1.75,0,0,1,347.47,16.8Z"/></g></g></svg>