<svg xmlns="http://www.w3.org/2000/svg" viewBox="0 0 307.35 74.02"><defs><style>.cls-1{fill:#a3644b;}</style></defs><title>logo-issue</title><g id="Capa_2" data-name="Capa 2"><g id="Capa_1-2" data-name="Capa 1"><path class="cls-1" d="M57.17,29c.18.26.13.62-.13,1.09a3.8,3.8,0,0,1-1.29,1.26l-.53.3h0a1.06,1.06,0,0,1-.19.11l-.22.11h0a1.42,1.42,0,0,0-.25.12l-.31.15h0l-.87.47-1.33.66h0a.38.38,0,0,1-.17.07.36.36,0,0,0-.17.07c-.77.37-1.76.81-3,1.33a44.26,44.26,0,0,1-4.53,1.64c-.93.28-1.95.55-3.06.8s-2.31.46-3.59.62a3.59,3.59,0,0,1-.08.35c0,.12-.05.24-.08.36-.15.58-.32,1.15-.5,1.69a13,13,0,0,1-.63,1.58,9.23,9.23,0,0,1-.47.82,1.85,1.85,0,0,1-.72.63l0,0a3.2,3.2,0,0,1-1.69.53A3.56,3.56,0,0,1,32,43.5a6.32,6.32,0,0,1-1.28-.7h0a6.39,6.39,0,0,1-1-.87q-.45-.47-.9-1a7.08,7.08,0,0,1-.6-.88c-.25-.39-.5-.8-.76-1.23l-.74-1.24-.52-.86L34,36.61c.38,0,.74,0,1.09,0l1.06-.1h0l0,0q.18-1,.3-1.89c.09-.61.18-1.26.28-2,.19-1.44.36-2.94.52-4.48s.3-3.13.43-4.74v0c.16-2.11.28-3.92.35-5.44s.14-2.9.19-4.13V13.6a1.34,1.34,0,0,0,0-.2c0-1.13,0-2.17.05-3.15s0-2,0-3.1c0-.55-.07-1.15-.1-1.76a18.33,18.33,0,0,0-.24-2,.13.13,0,0,0,0-.06.24.24,0,0,1,0-.09v0c-.06-.31-.13-.63-.21-1a2.74,2.74,0,0,0-.3-.81l0-.05L37,1.77c-.15.11-.3.22-.44.34Q35.5,3,34.35,4.18T31.92,6.76c-.87,1-1.79,2-2.75,3.13s-2,2.36-3.13,3.7Q22.77,17.52,20,21c-1.87,2.34-3.52,4.42-5,6.25-1.16,1.47-2.23,2.85-3.2,4.11S10,33.79,9.16,34.8l-.59.75c-.2.26-.38.5-.56.72l-3.1,4.07L3.2,42.61l0,0a4.58,4.58,0,0,1-.33.47,2.53,2.53,0,0,0-.22.28,4.11,4.11,0,0,1-1.35,1.16c-.47.24-.83.26-1.07.08s-.31-.54-.2-1a4.26,4.26,0,0,1,.76-1.59l.31-.37L1.56,41c.28-.33.69-.81,1.22-1.46L5,36.82,6.55,35c.57-.7,1.2-1.49,1.9-2.37l1.65-2c.58-.72,1.21-1.49,1.87-2.32l5.58-6.82q3.16-3.87,7.35-8.79,1.91-2.25,3.64-4.19C29.69,7.14,30.77,6,31.75,4.88c.51-.55,1-1.08,1.49-1.57s1-1,1.42-1.4a1.51,1.51,0,0,1,.18-.18A1.42,1.42,0,0,0,35,1.57l.49-.42c.16-.14.37-.3.61-.48l0,0a4.17,4.17,0,0,1,.38-.27L36.9.16A1.21,1.21,0,0,1,37.61,0,1.15,1.15,0,0,1,38,.11a2,2,0,0,1,.32.2,1.86,1.86,0,0,1,.5.7c.1.24.19.48.29.7a.37.37,0,0,1,0,.09.41.41,0,0,0,0,.08c.06.22.13.44.19.69s.11.47.15.69c0,0,0,.06,0,.09a.44.44,0,0,1,0,.1c.07.43.13.87.19,1.34s.1.89.14,1.27.1,1,.13,1.51.07,1,.09,1.4c0,.27,0,.53,0,.77s0,.49,0,.72c0,1.34,0,2.63,0,3.89s0,2.61-.08,4.07-.16,3.14-.29,5-.38,4.05-.72,6.56c-.1.67-.18,1.27-.26,1.81s-.14,1.05-.23,1.54-.17.95-.26,1.41-.2.94-.3,1.44c.78-.12,1.52-.27,2.22-.43s1.35-.33,2-.5l0,0a33.77,33.77,0,0,0,4.17-1.45c1.18-.5,2.15-.94,2.92-1.31s1.26-.66,1.73-.94l1.22-.72s0,0,.08-.05l.11-.06.64-.39A6.17,6.17,0,0,0,53.7,30l.39-.24c.16-.09.3-.18.43-.27a4.19,4.19,0,0,1,1.6-.66C56.63,28.72,57,28.8,57.17,29Zm-22,11.45c.13-.37.27-.78.4-1.24s.24-.87.32-1.22c-.24,0-.49,0-.74.06l-.74,0-1.61,0c-.54,0-1.06,0-1.57.07s-1,.08-1.38.13a4.47,4.47,0,0,0-1.06.25c.28.42.59.83.91,1.23A9.84,9.84,0,0,0,30.83,41a6.83,6.83,0,0,0,1.21.88,2.52,2.52,0,0,0,1.35.38,1.86,1.86,0,0,0,.62-.13l.31-.14.07-.06,0,0c.06,0,.09,0,.07,0a2,2,0,0,0,.4-.59c.12-.26.23-.52.33-.79Zm-1,1.62.08-.06,0,0Z"/><path class="cls-1" d="M97.11,26.75a1.63,1.63,0,0,1,1-.36,1,1,0,0,1,.84.42,1,1,0,0,1,.13.91,1.82,1.82,0,0,1-.64.9.8.8,0,0,1-.19.13l-.22.11a4.76,4.76,0,0,0-.47.29l-.85.55a5.91,5.91,0,0,0-.5.32l-.6.4-1,.67c-.4.25-.81.53-1.26.83l-.45.29c-.15.1-.31.2-.49.3-.78.51-1.69,1.07-2.7,1.69s-2.19,1.28-3.51,2l-.4.22-.4.22h0c-.77.42-1.6.85-2.48,1.3a22.76,22.76,0,0,1-3,1.25c-.64.21-1.32.42-2,.61a9.35,9.35,0,0,1-2.31.3,9.67,9.67,0,0,1-1.3-.12,5.13,5.13,0,0,1-2.61-1.22,4.69,4.69,0,0,1-1-1.17,5.33,5.33,0,0,1-.65-1.46,8.34,8.34,0,0,1-.28-1.37c-.32.28-.65.56-1,.83a8.86,8.86,0,0,0-.95.86h0a27.9,27.9,0,0,1-2.51,2.28c-.51.41-1.09.84-1.76,1.29a15.37,15.37,0,0,1-2.2,1.24h0a11.29,11.29,0,0,1-2.13.75,13,13,0,0,1-2.1.3l-.42,0a2.57,2.57,0,0,1-.4,0,7.76,7.76,0,0,1-1.21-.14A4.09,4.09,0,0,1,54,41.74a3.22,3.22,0,0,1-1-.81,3.79,3.79,0,0,1-.66-1,3.7,3.7,0,0,1-.27-1,8,8,0,0,1-.05-1c0-.28.05-.56.08-.83s.08-.55.13-.84c.11-.48.23-.94.36-1.37A10.05,10.05,0,0,1,53,33.69c.24-.66.48-1.25.71-1.76s.42-.93.57-1.23.23-.41.31-.56.15-.27.19-.36l.09-.2a1.7,1.7,0,0,1,.83-.77,1,1,0,0,1,.9,0,1.31,1.31,0,0,1,.46.82,1.59,1.59,0,0,1-.15,1s-.07.11-.11.19-.1.16-.14.24-.29.43-.51.77-.5.87-.86,1.58h0c-.16.32-.32.66-.48,1s-.29.69-.41,1h0A12.81,12.81,0,0,0,54,36.76a6.8,6.8,0,0,0-.2,1.52,3.19,3.19,0,0,0,.08.75,1.92,1.92,0,0,0,.32.72,1.69,1.69,0,0,0,.6.55,2.86,2.86,0,0,0,.88.31l0,0a8,8,0,0,0,1.72.11,9.94,9.94,0,0,0,3.43-.84,13.79,13.79,0,0,0,2.33-1.25c.67-.47,1.29-.93,1.82-1.38a16.36,16.36,0,0,0,1.46-1.34c.42-.43.8-.85,1.14-1.25A19.87,19.87,0,0,0,69,32.91c.38-.52.72-1,1-1.51a4,4,0,0,1,.48-.55,1,1,0,0,1,.62-.36c.21,0,.38.14.51.46a5,5,0,0,1,.12,1.85l0,.65c0,.16,0,.33,0,.5a3.23,3.23,0,0,0,.08.53,8.73,8.73,0,0,0,.21,1,4,4,0,0,0,.44,1,3.66,3.66,0,0,0,.75.91A3.26,3.26,0,0,0,74.5,38h0a5.57,5.57,0,0,0,1,.19,8.36,8.36,0,0,0,1,0l.91-.11c.3,0,.59-.09.89-.16a12.09,12.09,0,0,0,1.54-.42l1.32-.46h0c.83-.34,1.58-.69,2.28-1s1.45-.76,2.29-1.22c1.32-.76,2.46-1.46,3.44-2.1S91,31.5,91.69,31,93,30,93.5,29.67s.89-.68,1.23-1l.81-.66q.3-.27.57-.48l.48-.42Z"/><path class="cls-1" d="M133.78,25.22a.74.74,0,0,1,0,.49,1.63,1.63,0,0,1-.29.55,4.22,4.22,0,0,1-.56.56,5,5,0,0,1-.71.49l-.46.22-.73.31-.88.35-1.41.58-2.84,1.1c-1.22.46-2.7,1-4.46,1.5s-4,1.12-6.51,1.72a72.85,72.85,0,0,1-8.8,1.44c-.74.07-1.45.14-2.12.19l-2.25.18-.44,1.36c-.13.44-.27.92-.41,1.46.56.66,1.12,1.35,1.68,2.06s1.11,1.48,1.66,2.33c.2.32.4.64.58,1a11.22,11.22,0,0,1,.54,1c.08.21.15.42.22.64a2.69,2.69,0,0,1,.12.76,2.52,2.52,0,0,1,0,.58,1.68,1.68,0,0,1-.38.7,1.41,1.41,0,0,1-.71.46,2.34,2.34,0,0,1-.65.08,3.71,3.71,0,0,1-.84-.13,4.69,4.69,0,0,1-.67-.27,3.5,3.5,0,0,1-.51-.28l-.59-.38c-.34-.25-.67-.51-1-.79a9.19,9.19,0,0,1-.89-.87,10,10,0,0,1-.94-1.44,2.65,2.65,0,0,1-.31-1,7.06,7.06,0,0,1,0-.81A12.48,12.48,0,0,1,98.35,40c.07-.41.15-.81.25-1.19a.16.16,0,0,0,0-.13c0-.18.08-.33.1-.45s.07-.27.13-.45a5.19,5.19,0,0,0-.43-.49c-.15-.15-.29-.31-.44-.48l-.14-.19-.15-.2L97.33,36c-.13-.15-.26-.29-.38-.44s-.08-.12-.09-.11h0a2.69,2.69,0,0,1-.29-.28,1.53,1.53,0,0,1-.15-.19l-.35,0,0-.4,0-.07-.07-.39a.34.34,0,0,1,0-.08A.41.41,0,0,0,96,34l.11-.17.18-.35h.75l1.15,0,2.07,0c.24-.69.51-1.37.79-2.06s.55-1.36.81-2a.49.49,0,0,0,.06-.17.33.33,0,0,1,0-.16v0c.32-.79.68-1.64,1-2.54l1.3-3.1c-.63.61-1.22,1.16-1.75,1.65l-1.41,1.26-.79.67-.56.49-.25.22-.18.14a3.54,3.54,0,0,1-1.52.77q-.77.16-1.05-.24c-.2-.25-.18-.61,0-1.06A3.77,3.77,0,0,1,98,26.12h0a6.13,6.13,0,0,1,.53-.42l.71-.54.12-.1a.65.65,0,0,0,.12-.11l1.26-1c.51-.42,1.14-1,1.9-1.65.54-.49,1.15-1.05,1.83-1.7s1.4-1.4,2.16-2.26l2.08-4.54q1.14-2.49,2.68-5.56a1,1,0,0,0,.1-.19.93.93,0,0,1,.1-.22l1-2c.36-.67.71-1.27,1.06-1.82l0,0,.15-.22.22-.3.09-.1a.76.76,0,0,0,.09-.09l.08-.09a.12.12,0,0,0,.09-.06l.15-.15.12-.07.24-.1h.22a1,1,0,0,1,.23.05l.25.1-.08-.07a.83.83,0,0,1,.45.35,5,5,0,0,1,.24.46.15.15,0,0,0,0,.06.14.14,0,0,1,0,.06.41.41,0,0,1,0,.16c0,.06,0,.11,0,.16s0,.26,0,.37,0,.22,0,.3A6.24,6.24,0,0,1,116,6c-.1.38-.19.74-.29,1.07a22,22,0,0,1-1.59,3.7c-.61,1.1-1.23,2.14-1.84,3.11-.9,1.39-1.79,2.61-2.64,3.68s-1.68,2-2.48,2.92c-.28.65-.55,1.25-.79,1.83s-.48,1.13-.7,1.67v0q-1.16,2.79-1.89,4.85t-1.32,3.81c0,.09-.06.15-.08.2a1.42,1.42,0,0,0-.05.16s0,.11,0,.17a2.5,2.5,0,0,0-.08.25l2-.16c.67-.06,1.39-.13,2.16-.22a72.87,72.87,0,0,0,7.53-1.29c2.17-.5,4-1,5.54-1.51s2.83-.93,3.91-1.35,2-.82,2.78-1.17l1.33-.6c.39-.17.73-.34,1-.48l.79-.4.68-.34.6-.31c.21-.11.43-.21.64-.3a3.63,3.63,0,0,1,1.6-.45C133.31,24.82,133.64,25,133.78,25.22ZM99.4,36a.24.24,0,0,1,0-.07l0-.08.12-.41.13-.39V35l-.58,0a6.05,6.05,0,0,1-.61,0,9.11,9.11,0,0,0,.84,1s0,0,0,0Zm2.44,5.75-.72-1c-.23-.32-.46-.62-.69-.91a6.6,6.6,0,0,0-.15.85,6.18,6.18,0,0,0-.06.85,3.08,3.08,0,0,0,0,.43.77.77,0,0,0,.06.33,5.18,5.18,0,0,0,.62.89,7.74,7.74,0,0,0,.85.88,10.16,10.16,0,0,0,1.06.81c.16.11.31.21.47.3a1.68,1.68,0,0,0,.48.2v-.08h0a5.37,5.37,0,0,0-.35-.86l-.46-.88v0l0-.05a.13.13,0,0,0,0-.07c-.2-.34-.39-.64-.57-.93l-.51-.8ZM112.62,8.91c-.48.91-.92,1.79-1.33,2.63s-.79,1.64-1.17,2.42q.88-1.23,1.8-2.73a28.77,28.77,0,0,0,1.68-3.17c.14-.33.29-.68.43-1.05s.26-.73.38-1.12a.83.83,0,0,1,0-.15s0-.11,0-.17a.18.18,0,0,0,0,.07c-.17.28-.31.52-.43.74-.23.41-.46.82-.68,1.24Z"/><path class="cls-1" d="M173.42,23a1.67,1.67,0,0,1,1-.36,1,1,0,0,1,.84.42,1,1,0,0,1,.13.91,1.8,1.8,0,0,1-.63.9,1.62,1.62,0,0,1-.19.13l-.22.11a3.82,3.82,0,0,0-.47.29l-.85.55a4.23,4.23,0,0,0-.51.32c-.17.12-.37.26-.6.4l-1,.67-1.26.83-.44.28c-.15.1-.32.21-.5.31-.78.51-1.68,1.07-2.7,1.69s-2.19,1.28-3.51,2l-.39.22-.4.22h0c-.77.42-1.6.85-2.47,1.3a24.93,24.93,0,0,1-3,1.25c-.65.21-1.33.42-2,.61a9.33,9.33,0,0,1-2.3.3,9.81,9.81,0,0,1-1.31-.12,5.06,5.06,0,0,1-2.6-1.22,4.92,4.92,0,0,1-1-1.17,5.71,5.71,0,0,1-.65-1.47,9.41,9.41,0,0,1-.28-1.36c-.32.28-.65.56-1,.83a9.94,9.94,0,0,0-.95.86h0a29.57,29.57,0,0,1-2.52,2.28c-.5.4-1.09.83-1.75,1.29a14.55,14.55,0,0,1-2.21,1.23h0a10.32,10.32,0,0,1-2.14.75,12,12,0,0,1-2.1.31l-.42,0a2.57,2.57,0,0,1-.4,0,6.77,6.77,0,0,1-1.21-.15,3.89,3.89,0,0,1-1.17-.42,3.46,3.46,0,0,1-1-.81,4.11,4.11,0,0,1-.66-1,3.83,3.83,0,0,1-.28-1.05c0-.33-.05-.65-.05-1s.05-.56.09-.83.08-.56.13-.84c.11-.48.22-.94.35-1.37s.26-.81.39-1.14c.25-.66.49-1.25.72-1.76s.42-.93.57-1.23.22-.41.31-.56.14-.28.19-.36l.09-.2A1.68,1.68,0,0,1,132,25a1,1,0,0,1,.89,0,1.31,1.31,0,0,1,.46.82,1.5,1.5,0,0,1-.15,1,2.19,2.19,0,0,1-.11.2,2.55,2.55,0,0,0-.14.24c-.12.17-.29.43-.5.77a17.4,17.4,0,0,0-.87,1.58h0c-.17.32-.33.66-.48,1s-.3.68-.41,1h0a10.27,10.27,0,0,0-.4,1.31,5.81,5.81,0,0,0-.2,1.52,3.23,3.23,0,0,0,.07.75,2,2,0,0,0,.32.71,1.8,1.8,0,0,0,.6.56,3,3,0,0,0,.88.31l0,0a7.9,7.9,0,0,0,1.71.11,9.94,9.94,0,0,0,3.43-.84,13.79,13.79,0,0,0,2.33-1.25q1-.7,1.83-1.38a17.78,17.78,0,0,0,1.45-1.34c.42-.43.8-.85,1.14-1.25a21.5,21.5,0,0,0,1.39-1.73c.38-.53.72-1,1-1.51a5.89,5.89,0,0,1,.48-.56,1.06,1.06,0,0,1,.63-.35c.2,0,.37.13.5.46A4.8,4.8,0,0,1,148,29l0,.64,0,.51a3.35,3.35,0,0,0,.07.53,7,7,0,0,0,.22,1,4,4,0,0,0,.43,1,3.46,3.46,0,0,0,.75.9,3.27,3.27,0,0,0,1.26.66h0a5.47,5.47,0,0,0,1,.19c.34,0,.68,0,1,0l.91-.11c.29,0,.59-.09.88-.16a11.65,11.65,0,0,0,1.54-.42c.46-.15.9-.31,1.32-.46h0c.83-.34,1.59-.69,2.28-1L162,31c1.31-.76,2.46-1.46,3.43-2.1s1.83-1.23,2.54-1.74l1.81-1.32c.49-.36.9-.68,1.23-1l.81-.65q.3-.27.57-.48l.49-.42C173.07,23.21,173.24,23.08,173.42,23Z"/><path class="cls-1" d="M247.82,19.45a1,1,0,0,1-.07,1,2.65,2.65,0,0,1-1,1.1h0l-.2.14a2.94,2.94,0,0,1-.42.23h0l-.76.41q-.5.27-1.5.9l0,0-.28.17-.3.2c-.57.36-1.29.79-2.14,1.28l-3.08,1.76c-.69.4-1.47.83-2.33,1.31s-1.78.95-2.76,1.45-2.11,1-3.36,1.6-2.53,1.1-3.85,1.58a9.86,9.86,0,0,1-1.28.38,11.4,11.4,0,0,1-1.36.2,7.31,7.31,0,0,1-1.46-.08,7.06,7.06,0,0,1-1.49-.37A8.39,8.39,0,0,1,217.54,31a12.35,12.35,0,0,1-2.09-2.54,18.23,18.23,0,0,1-1.49-3.1.59.59,0,0,1-.08-.16s0,0,0,0l0,0c-.9.85-1.84,1.69-2.8,2.53s-2,1.64-3.08,2.44a39.77,39.77,0,0,1-3.78,2.52,32.81,32.81,0,0,1-3.1,1.59,12.05,12.05,0,0,1-2.86.89,3.71,3.71,0,0,1-.55.09l-.6,0a5.71,5.71,0,0,1-1,0,4,4,0,0,1-1-.22,4.78,4.78,0,0,1-1.55-.89,6.68,6.68,0,0,1-1.3-1.44,10.54,10.54,0,0,1-.92-1.84,15.57,15.57,0,0,1-.64-2.18v0c-.14-.6-.26-1.25-.36-1.94s-.15-1.44-.19-2.25v-.19c-.2.12-.38.25-.57.38s-.36.27-.53.42l-1.37,1c-.46.32-.94.65-1.43,1l-.22.13-.22.16q-3.5,2.43-6.51,4.39c-2,1.31-3.88,2.43-5.61,3.38-.42.23-.86.46-1.31.67s-.91.41-1.38.58h0a6,6,0,0,1-.68.23,3,3,0,0,1-.76.09h-.28a1.25,1.25,0,0,1-.35-.11,1.07,1.07,0,0,1-.41-.21.88.88,0,0,1-.26-.33,1,1,0,0,1-.07-.18c0-.09-.06-.15-.07-.2a.45.45,0,0,1,0-.08.25.25,0,0,1,0-.07,4.2,4.2,0,0,1,0-.51,2.7,2.7,0,0,1,.06-.36,7.06,7.06,0,0,1,.28-1l.32-.85a1.19,1.19,0,0,0,.08-.2.53.53,0,0,1,.08-.17,6.48,6.48,0,0,1,.26-.63,5.86,5.86,0,0,0,.27-.59c0-.09.09-.18.13-.29a2.64,2.64,0,0,1,.14-.29l0,0c.5-1.06.93-2,1.32-2.75l.95-1.92.37-.68.27-.52c.07-.15.14-.27.19-.37l.13-.24a3.51,3.51,0,0,1,1-1.14.9.9,0,0,1,1-.15,1,1,0,0,1,.41.94,3.1,3.1,0,0,1-.41,1.44c0,.09-.1.18-.15.29a2.81,2.81,0,0,1-.22.4c-.16.29-.42.73-.77,1.32s-.84,1.47-1.46,2.61c-.24.44-.49.93-.75,1.46s-.55,1.12-.85,1.76c0,.07-.05.13-.07.19s-.05.13-.08.19a9.24,9.24,0,0,0-.5,1.34c.24-.06.52-.15.83-.26l.09-.05a.21.21,0,0,0,.1,0h0a25,25,0,0,0,2.92-1.42c1-.57,2.11-1.2,3.26-1.88h0c1.15-.7,2.38-1.47,3.68-2.29s2.67-1.72,4.13-2.69l.21-.15a1.25,1.25,0,0,1,.22-.16c.57-.41,1.13-.8,1.67-1.17s1.07-.72,1.56-1.08a2,2,0,0,0,.26-.2,3.09,3.09,0,0,1,.41-.25h0a1.31,1.31,0,0,1,.46-.23,1.35,1.35,0,0,0,.45-.26l.33-.37a.1.1,0,0,0,.07-.05l.08-.05.83.35v0s0,0,0,0l0,.45v.2a3.08,3.08,0,0,0,0,.43c0,.14,0,.28,0,.41a21.86,21.86,0,0,0,.33,3.24,16.42,16.42,0,0,0,.71,2.65,7.34,7.34,0,0,0,1,2A4.18,4.18,0,0,0,195,33.23a2.54,2.54,0,0,0,.89.33,4,4,0,0,0,.91,0,3.62,3.62,0,0,0,.58-.08c.22,0,.42-.08.6-.13.5-.14,1-.29,1.45-.46s.9-.36,1.3-.56l1.35-.72c.47-.25.93-.53,1.4-.83,1-.61,2.06-1.37,3.3-2.26s2.63-2,4.15-3.25c.48-.4.94-.79,1.37-1.17s.86-.75,1.27-1.11l0-.06.12-.11.14-.15h0l.19-.21.48.17.28.08.16.06.14,0,0,.42c.37.15.56.32.56.52a.46.46,0,0,1-.29.43v.08s0,0,0,0c.09.24.19.5.27.77s.18.51.28.74v0a12.65,12.65,0,0,0,2.55,4,5.61,5.61,0,0,0,3.23,1.75,5.86,5.86,0,0,0,1.3.08,6.29,6.29,0,0,0,1.28-.19,10.86,10.86,0,0,0,1.31-.41c1.19-.44,2.28-.9,3.27-1.37s1.91-.94,2.77-1.38h0c.87-.47,1.67-.92,2.4-1.34s1.4-.8,2-1.16c1.22-.74,2.27-1.38,3.13-1.93s1.59-1,2.16-1.41,1.07-.72,1.44-1,.69-.51,1-.7l.83-.57.85-.56h0a3,3,0,0,1,1.41-.56,1,1,0,0,1,1,.32Zm-32.67,4s0,0,0,0v0a.05.05,0,0,1,0,0Z"/><path class="cls-1" d="M305.11,16.81a2.14,2.14,0,0,1,1.15-.54,1,1,0,0,1,.92.29,1,1,0,0,1,.09,1,2.3,2.3,0,0,1-.69,1.05,1.08,1.08,0,0,1-.15.14l-.21.13L306,19l-.34.23-.49.34-.72.53-.25.18a2.43,2.43,0,0,0-.25.2q-1.33,1-3.81,2.66c-.52.36-1.11.74-1.75,1.14s-1.35.83-2.12,1.26-1.6.87-2.55,1.34-2,.94-3,1.37q-.87.35-1.86.69c-.66.23-1.35.45-2.09.66a22.79,22.79,0,0,1-2.27.53,21.11,21.11,0,0,1-2.44.31,17.5,17.5,0,0,1-5.53-.54,17,17,0,0,1-2.89-1.12A14.38,14.38,0,0,1,270.84,27a16.88,16.88,0,0,1-2.58-2.56c-.63-.82-1.18-1.58-1.65-2.26a20.53,20.53,0,0,1-1.13-1.95.85.85,0,0,0-.17.08c-.63.33-1.34.71-2.11,1.14s-1.66,1-2.64,1.62c-.73.49-1.58,1.06-2.54,1.73s-2,1.4-3.09,2.2l-1.23.88-1.33.93c-.93.62-1.83,1.21-2.71,1.77a27.77,27.77,0,0,1-2.6,1.47c-.46.22-.91.42-1.36.6a10,10,0,0,1-1.32.42,5.86,5.86,0,0,1-1.23.19,4.77,4.77,0,0,1-1.59-.17l-.13,0-.13,0-.07,0-.08,0,.15,0a.22.22,0,0,0-.12,0l-.28-.13a1.64,1.64,0,0,1-.42-.38,1.18,1.18,0,0,1-.22-.56c0-.15,0-.29,0-.42V31.3a5.93,5.93,0,0,1,.09-.68,2.69,2.69,0,0,1,.17-.57v0c.11-.37.23-.71.34-1s.24-.61.36-.9c.48-1.13.95-2.1,1.39-2.92.81-1.61,1.43-2.8,1.85-3.57l.8-1.44a2.23,2.23,0,0,1,.93-.9.91.91,0,0,1,1,0,1,1,0,0,1,.45.85,2.14,2.14,0,0,1-.34,1.25v0a1.3,1.3,0,0,1-.15.28l-.2.28c-.15.22-.37.56-.64,1s-.67,1.11-1.19,2a1.14,1.14,0,0,0-.15.23l-.1.23-.54.93q-.28.49-.6,1.11c-.13.25-.27.52-.4.79s-.27.56-.41.86-.29.65-.42,1-.25.66-.35,1v0a1.18,1.18,0,0,0,0,.4l.12,0h0a1.15,1.15,0,0,0,.28.06l.34,0a4.74,4.74,0,0,0,1.27-.12,10,10,0,0,0,1.36-.4,14.17,14.17,0,0,0,1.4-.62c.52-.26,1-.54,1.59-.85s1.08-.63,1.63-1,1.08-.67,1.58-1c.76-.52,1.5-1,2.2-1.53l2-1.38a7.45,7.45,0,0,1,.62-.42,5.38,5.38,0,0,0,.58-.41c1.53-1.07,2.88-2,4-2.73l1.6-1.05c.52-.34,1-.63,1.43-.89l1-.54v-.15l.09,0,.09,0,.14-.08.15-.09a.48.48,0,0,0,.12-.08l1.17.54.15.28a1.28,1.28,0,0,0,.15.25c.43.71.87,1.36,1.32,2s1,1.25,1.59,1.93c.3.33.62.67,1,1s.74.7,1.17,1.06.94.72,1.48,1.09a13,13,0,0,0,1.87,1,14.41,14.41,0,0,0,2.66.93,15.17,15.17,0,0,0,2.34.36,15.73,15.73,0,0,0,2,0c.28,0,.58,0,.89-.07l.89-.11a28,28,0,0,0,3.07-.74c1-.31,2.06-.68,3.13-1.11a36.13,36.13,0,0,0,4.64-2.36c1.29-.79,2.38-1.49,3.29-2.1h0c.92-.66,1.69-1.23,2.3-1.71s1.14-.9,1.56-1.26l1.07-.92c.29-.24.54-.46.74-.65l.53-.49C304.69,17.15,304.88,17,305.11,16.81ZM241.89,31.36h0l0,0S241.91,31.36,241.89,31.36Zm.11.17a.36.36,0,0,0,0-.1Z"/><path class="cls-1" d="M211.54,70.37a2.68,2.68,0,0,0,2.81,1.87c1.46,0,2.41-.69,2.41-1.85,0-.87-.51-1.37-1.8-1.67l-2.11-.51c-1.71-.41-3.09-1.33-3.09-3.34s1.72-3.68,4.23-3.68c2.69,0,4.26,1.38,4.71,3.44h-2.1A2.5,2.5,0,0,0,214,63c-1.34,0-2.25.69-2.25,1.72,0,.83.53,1.36,1.64,1.62l2.17.5c1.94.45,3.21,1.58,3.21,3.44,0,2.33-1.86,3.77-4.43,3.77s-4.51-1.34-4.95-3.65Z"/><path class="cls-1" d="M223.94,71.16a1.4,1.4,0,1,1-1.38,1.4A1.37,1.37,0,0,1,223.94,71.16Z"/><path class="cls-1" d="M231.74,73.81V61.39h7.93v1.86h-5.83v3.69h5.44v1.84h-5.44v5Z"/><path class="cls-1" d="M243.62,71.16a1.4,1.4,0,1,1-1.38,1.4A1.37,1.37,0,0,1,243.62,71.16Z"/><path class="cls-1" d="M259.24,64.2a1.34,1.34,0,0,0-1.39-1.41,1.54,1.54,0,0,0-1.62,1.56,3.18,3.18,0,0,0,1.17,2.06l3.12,3.34a7.77,7.77,0,0,0,.4-2.25h1.86a7.85,7.85,0,0,1-1,3.62l2.51,2.69h-2.63l-1.09-1.13A4.91,4.91,0,0,1,257.2,74a3.78,3.78,0,0,1-2-7.17,3.63,3.63,0,0,1-.93-2.44c0-2,1.53-3.22,3.56-3.22,2.2,0,3.39,1.38,3.39,3Zm.25,7.27-3.18-3.38A2.26,2.26,0,0,0,255,70.17a2.08,2.08,0,0,0,2.23,2.19A3.24,3.24,0,0,0,259.49,71.47Z"/><path class="cls-1" d="M277.23,61.19a4.78,4.78,0,0,1,5.06,4.11h-2.06a3,3,0,0,0-3-2.21c-2.18,0-3.52,1.9-3.52,4.51s1.32,4.51,3.52,4.51a3,3,0,0,0,3-2.22h2.06A4.79,4.79,0,0,1,277.23,74c-3.19,0-5.64-2.59-5.64-6.42S274,61.19,277.23,61.19Z"/><path class="cls-1" d="M291.82,74c-3.36,0-5.73-2.72-5.73-6.42s2.37-6.41,5.73-6.41,5.74,2.69,5.74,6.41S295.17,74,291.82,74Zm0-10.95c-2.19,0-3.6,1.9-3.6,4.53s1.41,4.53,3.6,4.53,3.62-1.9,3.62-4.53S294,63.07,291.82,63.07Z"/><path class="cls-1" d="M302,71.16a1.4,1.4,0,1,1-1.38,1.4A1.37,1.37,0,0,1,302,71.16Z"/></g></g></svg>